<svg width="500" height="150" viewBox="0 0 500 150" fill="none" xmlns="http://www.w3.org/2000/svg">
<rect width="500" height="150" fill="white"/>
<path d="M86 39.448C86.576 39.832 86.96 40.216 87.536 40.408C88.304 40.6 89.264 40.6 90.032 40.6C91.184 40.792 91.376 40.984 91.376 41.944C91.184 45.592 90.992 49.048 90.8 52.504C90.8 52.696 90.8 52.888 90.608 53.08C90.416 55.384 90.224 57.688 90.032 59.992C89.84 61.912 89.84 63.832 89.648 65.752C89.456 68.248 89.072 70.744 88.88 73.048C88.688 75.352 88.688 77.656 88.496 79.96C88.304 83.608 87.92 87.256 87.536 90.904C87.344 91.288 87.344 91.672 87.152 92.056C86.96 93.976 86.384 96.088 86.576 98.008C86.576 99.544 86.384 100.888 86.384 102.424C86.192 104.536 86.192 106.648 88.304 108.376C89.072 108.376 89.84 108.184 90.608 107.992C92.72 107.416 94.832 106.648 96.944 106.072C101.936 104.728 106.544 102.808 110.96 100.12C110.768 99.736 110.576 99.544 110.384 99.16C110.96 98.776 111.344 98.392 111.92 98.008C110.576 97.624 109.616 97.24 108.464 97.816C107.888 98.008 107.312 97.816 106.736 97.816C106.544 97.816 106.16 97.816 105.968 97.816C105.008 98.392 103.856 98.776 103.088 99.352C100.784 100.696 98.48 101.464 95.792 101.464C95.024 101.464 94.256 101.464 93.296 101.656C93.104 101.272 92.912 100.696 92.912 100.312C93.104 98.776 93.488 97.24 93.68 95.704C93.872 94.936 94.064 94.36 94.064 93.592C94.256 91.096 94.256 88.408 94.448 85.912C94.448 84.952 94.448 84.184 94.448 83.224C94.64 81.304 94.832 79.192 95.216 77.08C95.216 75.928 95.408 74.584 95.6 73.432C100.592 72.28 105.2 70.552 110 68.824C108.656 68.056 108.272 67.864 107.504 68.056C105.968 68.248 104.624 68.632 103.28 68.824C100.976 69.4 98.864 69.976 96.56 70.552C96.368 70.552 96.176 70.36 95.792 70.36C95.792 66.52 95.792 62.488 95.792 59.032C95.408 60.952 95.024 63.064 94.832 65.176C94.64 65.176 94.448 65.176 94.256 64.984C94.64 61.72 94.832 58.264 95.216 55C95.216 55 95.408 55 95.6 54.808C95.6 55.384 95.792 55.96 95.792 56.344C96.368 54.424 96.56 52.504 96.944 50.584C97.136 47.896 97.52 45.208 97.712 42.328C97.904 40.216 97.712 40.216 99.632 39.832C100.208 39.64 100.592 39.64 101.168 39.64C102.896 39.448 104.816 39.256 106.544 39.064C109.616 38.68 112.688 38.296 115.76 37.72C116.528 37.72 117.296 37.528 118.064 37.336C119.216 37.144 119.6 36.568 119.216 35.224C116.72 35.224 114.416 35.224 111.92 35.224C110.192 35.416 108.272 35.608 106.544 35.8C103.856 36.184 101.168 36.376 98.48 36.76C96.752 36.952 95.216 37.144 93.488 37.336C91.76 37.528 90.032 37.912 88.496 38.296C87.728 38.488 86.576 38.296 86 39.448ZM89.456 93.208C89.648 91.672 89.648 90.328 89.648 88.792C89.84 88.792 89.84 88.792 90.032 88.792C90.032 90.328 90.032 91.864 90.032 93.208C89.84 93.208 89.648 93.208 89.456 93.208ZM94.448 66.52C95.024 67.672 94.448 68.824 93.872 69.976C93.872 68.824 94.064 67.672 94.064 66.52C94.256 66.52 94.448 66.52 94.448 66.52ZM90.416 84.952C90.416 85.72 90.416 86.296 90.416 86.872C90.224 86.872 90.224 86.872 90.032 86.872C90.032 86.296 90.032 85.72 90.032 84.952C90.224 84.952 90.416 84.952 90.416 84.952ZM159.023 108.088C155.759 108.856 152.495 109.432 149.039 110.2C151.151 105.592 152.879 101.176 150.575 96.184C149.807 95.992 149.039 95.608 148.079 95.608C147.695 95.416 147.311 95.416 146.927 95.608C145.007 96.376 142.895 96.184 141.167 97.528C140.975 97.528 140.591 97.528 140.399 97.528C137.519 97.528 134.831 98.104 132.143 98.68C130.415 98.872 128.879 99.064 127.151 99.256C127.151 98.872 127.151 98.872 127.343 98.68C129.839 95.224 132.719 91.768 135.023 88.12C138.095 83.512 141.935 79.672 145.391 75.448C147.695 72.568 149.999 69.88 152.111 67C154.031 64.696 155.951 62.2 155.759 59.128C156.335 58.936 156.719 58.744 157.487 58.36C155.375 57.592 153.647 56.632 151.727 56.824C149.807 56.824 147.695 57.016 145.775 57.208C143.471 57.4 141.167 57.784 138.863 57.976C136.175 58.36 133.679 58.936 130.991 59.32C130.223 59.512 129.263 59.512 128.495 60.28C128.879 61.048 129.263 61.048 130.031 60.856C133.295 60.472 136.559 60.088 139.823 59.704C141.167 59.512 142.703 59.32 144.239 59.128C145.775 58.936 147.311 58.744 148.847 58.552C149.039 58.552 149.231 58.744 149.423 58.936C149.231 59.128 149.231 59.32 149.039 59.512C147.503 61.432 146.159 63.352 144.623 65.272C143.471 66.808 142.319 68.344 141.167 69.688C140.015 71.224 138.863 72.568 137.711 74.104C135.983 76.408 134.063 78.712 132.335 81.208C130.799 82.936 129.071 84.664 127.919 86.776C125.999 89.464 124.271 92.536 122.543 95.416C121.967 96.376 121.775 97.528 121.583 98.488C121.583 99.64 121.583 100.408 120.623 100.984C122.159 102.712 122.159 102.712 123.887 101.752C124.079 101.752 124.271 101.56 124.463 101.56C128.495 100.984 132.527 100.408 136.367 99.64C139.055 99.256 141.743 99.064 144.623 98.68C145.583 98.488 147.311 99.256 147.311 100.216C147.503 102.328 147.503 104.44 147.503 106.744C147.503 106.936 147.311 107.128 147.119 107.32C146.351 108.664 145.775 109.816 145.007 111.16C144.623 111.544 144.239 111.928 143.855 112.12C142.127 112.888 140.399 113.464 138.863 114.424C133.103 117.688 127.343 120.76 122.159 124.792C121.007 125.56 120.239 126.712 119.663 128.056C119.279 128.824 119.471 129.208 120.047 129.4C121.007 129.784 121.775 130.168 122.351 130.36C123.887 129.976 125.231 129.784 126.575 129.592C128.879 129.016 131.183 128.632 132.719 126.712C134.447 124.792 136.751 123.448 138.863 121.912C141.359 119.8 143.663 117.688 145.775 115.192C148.271 111.928 148.079 111.736 151.151 110.776C151.727 110.584 152.303 110.584 153.071 110.392C154.991 109.816 157.103 109.24 159.023 108.472C159.023 108.472 159.023 108.28 159.023 108.088ZM129.839 93.304C130.607 92.152 131.183 90.616 132.143 89.656C133.679 88.504 134.255 86.968 135.407 85.624C135.599 85.24 135.983 85.048 136.367 84.856C135.215 87.16 133.679 89.464 132.143 91.576C131.375 92.344 130.607 93.112 129.647 94.072C129.647 93.688 129.647 93.496 129.839 93.304ZM125.039 99.448C125.039 99.256 125.039 99.064 125.039 99.064C125.615 98.296 125.999 97.336 126.575 96.76C127.343 95.992 127.919 95.032 128.495 94.264C128.687 94.072 128.879 93.88 129.071 93.88C128.303 95.224 127.535 96.568 126.575 97.912C126.191 98.488 125.615 98.872 125.039 99.448ZM142.703 115C140.399 117.304 138.095 119.8 135.791 122.104C135.215 122.68 134.447 123.256 133.871 123.64C131.375 125.176 128.879 126.904 126.383 128.248C124.655 129.208 122.735 129.592 120.431 128.632C120.815 128.248 121.007 127.864 121.199 127.672C124.271 125.176 127.535 122.68 130.991 120.568C131.951 119.8 133.103 119.224 134.063 118.456C136.559 116.536 139.631 115.384 142.511 114.232C142.703 114.04 142.895 114.04 143.471 114.04C143.087 114.424 143.087 114.808 142.703 115ZM177.821 59.896C178.013 58.744 178.013 57.784 178.013 56.632C177.821 55.288 177.437 54.904 176.093 54.904C174.749 54.904 173.597 55.48 172.637 56.632C170.909 59.128 169.181 61.816 167.453 64.312C167.261 64.504 167.069 64.504 166.877 64.696C166.685 62.776 166.493 61.048 166.493 59.32C166.493 57.592 166.493 55.864 166.685 53.944C166.685 51.448 164.957 49.912 162.077 49.912C161.309 51.832 160.925 53.56 160.733 55.48C160.349 57.784 159.965 60.088 159.581 62.392C159.197 64.696 158.813 67.192 158.621 69.496C158.429 71.416 158.429 73.336 158.045 75.256C157.661 78.136 157.085 80.824 157.277 83.704C157.277 84.088 157.277 84.472 157.085 84.856C156.893 87.928 156.509 91 156.317 94.072C156.125 96.568 156.125 99.064 156.125 101.56C156.125 102.328 156.317 103.096 156.317 103.864C156.509 105.976 157.469 108.088 157.085 110.392C156.893 110.776 157.085 111.16 157.277 111.736C157.661 111.16 157.853 110.776 158.045 110.584C158.429 110.968 158.813 111.16 159.197 111.544C160.925 109.624 161.117 109.24 161.117 107.32C161.117 107.128 161.117 106.936 161.117 106.744C161.501 105.208 161.693 103.672 161.885 102.328C162.269 98.68 162.461 95.032 162.845 91.384C163.229 88.504 163.805 85.432 164.189 82.552C164.381 81.4 164.765 80.248 164.957 79.288C165.533 75.832 165.725 72.568 167.069 69.304C168.797 65.272 171.101 61.816 173.981 58.552C174.173 58.36 174.557 58.168 174.749 57.976C175.325 59.896 175.901 61.624 176.477 63.352C177.437 65.272 177.821 65.272 179.933 64.504C177.629 63.544 177.629 61.816 177.821 59.896ZM158.429 99.832C158.429 100.792 158.045 101.944 157.853 103.288C157.661 102.904 157.661 102.712 157.661 102.52C157.469 101.176 157.277 99.64 157.661 98.104C158.045 96.376 157.853 94.648 157.853 92.92C158.045 92.536 158.237 92.152 158.429 91.96C158.621 94.456 158.621 97.144 158.429 99.832ZM221.119 81.784C220.351 82.552 219.775 82.936 219.391 83.512C217.663 85.432 216.127 87.544 214.591 89.656C212.479 92.728 210.367 95.992 208.063 98.872C206.911 100.6 205.567 102.328 203.839 103.864C203.263 104.44 201.919 104.44 200.959 104.248C200.383 104.056 199.999 102.712 199.999 101.944C200.383 99.064 200.575 96.376 201.343 93.688C203.263 87.544 205.567 81.4 207.487 75.256C208.255 73.144 209.023 71.032 209.599 68.92C210.175 66.232 207.679 63.736 205.375 64.888C204.223 65.464 203.455 66.808 203.071 67.96C201.727 71.224 200.959 74.296 199.807 77.56C198.847 81.016 198.655 85.24 194.815 87.352C193.087 88.312 191.551 89.848 189.823 90.616C187.519 91.768 185.023 92.536 182.719 93.304C181.183 93.688 179.263 91.96 179.071 90.424C178.687 85.624 179.455 81.208 181.375 76.984C183.295 72.952 185.599 68.92 188.095 65.08C189.055 63.544 190.591 62.392 192.127 61.432C193.855 60.28 195.391 61.048 195.967 62.968C196.159 63.736 196.159 64.504 196.543 65.272C196.927 65.848 197.503 66.424 198.079 67C198.271 66.808 198.463 66.616 198.655 66.616C198.079 65.08 197.503 63.352 196.734 62.008C195.391 59.128 193.279 58.36 190.207 59.32C186.559 60.472 184.255 63.544 181.951 66.04C180.031 68.344 178.495 71.032 176.959 73.528C173.503 78.52 171.966 84.28 172.159 90.424C172.159 96.184 177.535 98.872 181.183 98.488C185.791 97.912 189.631 95.992 192.703 92.728C194.047 91.384 195.391 90.232 197.119 88.504C196.543 91 196.159 92.728 195.967 94.456C195.775 96.376 195.583 98.104 195.583 100.024C195.391 104.632 200.575 109.24 204.799 107.512C208.255 105.976 221.695 83.32 221.119 83.32C221.119 82.936 221.119 82.552 221.119 81.784ZM176.575 92.536C178.495 93.688 180.415 94.84 182.143 95.8C178.879 96.376 176.575 95.032 176.575 92.536ZM174.271 93.304C175.807 94.648 177.151 95.8 178.303 96.76C175.999 96.952 174.847 95.8 174.271 93.304Z" fill="black"/>
<path d="M364.128 72.504C363.264 72.504 362.688 73.08 361.824 72.504C361.824 72.216 361.536 72.216 361.248 72.504C360.672 72.792 359.808 72.504 359.52 73.08C359.232 73.368 358.656 73.368 358.368 73.08C358.368 72.792 357.792 72.792 357.792 73.08C357.216 73.08 356.64 73.368 355.776 73.944C355.488 73.656 354.624 73.656 354.048 73.944C353.76 73.944 353.184 73.944 353.184 73.944C352.608 73.656 352.32 73.944 352.032 73.944C351.456 74.232 350.88 74.52 350.592 74.52C348 74.808 345.696 75.096 343.104 75.96C341.376 76.248 339.648 76.248 337.92 76.824C336.768 76.824 335.904 76.824 334.752 76.824C333.888 76.536 332.736 77.112 332.16 76.248C332.16 76.248 331.872 76.536 331.872 76.248C330.144 75.96 328.128 76.248 326.4 75.672C325.824 75.672 325.248 75.672 324.672 75.384C323.808 75.096 322.944 75.096 322.656 74.232C321.216 73.944 319.776 73.944 318.624 73.656C317.76 73.656 316.608 73.656 315.744 73.368C314.88 73.08 314.304 73.08 313.728 73.656C313.152 73.368 312.864 73.368 312.576 73.368C312 73.368 311.712 73.368 311.136 73.368C309.984 73.656 308.832 73.08 307.968 73.656C307.68 73.944 307.104 73.944 306.816 73.944C305.952 73.944 304.8 73.944 303.936 73.944C302.784 74.232 301.632 74.808 300.48 75.096C299.904 75.096 299.328 74.808 299.04 75.096C297.888 75.672 296.736 76.248 295.296 76.248C295.296 76.248 295.008 76.536 294.72 76.824C293.856 77.112 293.28 77.976 292.416 77.976C291.84 77.976 291.264 77.976 290.976 78.552C290.976 78.84 290.688 78.84 290.688 78.84C289.824 79.416 288.96 79.992 288.096 80.28C286.656 80.568 286.08 81.432 285.216 82.008C287.52 81.144 289.824 79.992 292.128 79.128C292.704 78.84 292.992 78.84 293.28 78.552C295.872 77.976 298.464 77.112 300.768 76.536C301.344 76.248 301.92 76.536 302.208 76.536C302.784 75.96 303.648 76.248 304.512 76.248C305.088 76.248 305.664 75.96 306.528 75.672C307.68 75.384 309.12 75.672 310.56 75.384C311.136 75.384 311.424 75.384 312 75.384C312.576 75.384 313.44 75.384 314.016 75.384C315.456 75.672 316.896 75.96 318.624 75.96C319.488 75.96 320.064 76.536 321.216 76.248C321.792 77.112 322.656 76.536 323.232 76.536C323.808 76.536 324.384 76.536 324.96 76.824C325.248 76.824 325.536 77.112 326.112 77.112C326.4 76.824 326.976 77.112 326.976 77.112C328.416 78.264 330.144 78.264 331.872 78.84C333.024 79.416 334.464 79.704 335.904 79.704C337.056 79.704 337.92 79.992 339.072 80.28C339.36 80.28 339.648 79.992 339.936 79.992C340.224 79.704 340.8 80.568 341.088 79.992C341.376 79.704 341.664 79.704 341.952 79.992C343.104 80.28 343.968 79.992 345.12 79.992C346.848 79.704 348.288 79.128 349.728 79.128C351.168 79.128 352.32 78.552 353.76 78.264C354.624 77.976 355.488 77.688 356.64 77.688C358.944 77.112 361.248 76.824 363.552 76.536C365.568 75.96 367.584 76.248 369.6 76.248C369.888 76.248 370.464 76.248 371.04 76.536C372.192 76.536 373.344 76.536 374.208 76.824C376.8 77.688 379.68 78.552 382.272 79.416C384.288 80.28 386.304 80.856 388.32 80.856C390.624 81.144 393.216 81.144 395.808 80.28C396.096 80.28 396.672 80.28 396.96 79.992C400.416 79.128 403.872 77.976 407.04 76.248C411.072 73.944 415.104 71.064 418.272 67.608C418.56 67.32 418.56 66.744 418.848 66.456C417.408 65.592 415.968 66.168 415.104 67.032C413.376 68.184 411.936 69.624 410.208 70.488C409.632 70.488 409.344 70.776 409.056 71.064C408.192 71.64 407.328 72.216 406.176 72.504C405.888 72.504 405.6 72.792 405.6 72.792C405.312 73.08 405.024 73.368 404.736 73.368C403.872 73.656 403.008 73.944 402.144 74.52C401.568 74.808 400.992 75.096 400.128 75.096C398.4 75.672 396.384 75.96 394.368 75.96C393.504 75.96 392.64 76.248 391.488 75.96C389.472 76.536 387.456 75.96 385.44 75.384C384 75.096 382.848 74.52 381.408 74.808C380.832 74.808 379.968 74.808 379.68 74.232C379.392 73.944 379.104 73.944 379.104 73.944C377.376 73.656 375.648 73.368 373.92 73.08C372.192 72.792 370.464 72.216 368.736 72.504C367.872 72.792 367.008 72.792 366.144 72.792C365.28 72.792 364.704 73.08 364.128 72.504ZM353.184 75.672C351.744 76.536 350.304 76.824 348.864 77.4C348.576 77.4 348.288 77.4 348 77.688C348 77.688 347.712 77.688 347.424 77.976C346.272 77.976 345.408 77.976 344.256 77.976C343.968 77.976 343.392 77.976 343.104 78.264C342.816 78.264 342.528 78.264 342.528 78.264C341.376 78.552 340.224 78.84 339.072 78.84C338.208 78.84 337.344 78.552 336.48 78.552C336.48 78.552 336.192 78.264 336.192 77.976C336.48 77.976 336.48 77.976 336.768 77.976C338.784 77.976 340.8 77.688 342.816 77.688C343.68 77.688 344.544 77.688 345.408 76.824C345.408 76.824 345.696 76.824 345.984 76.824C346.56 77.112 347.136 76.824 347.712 76.536C349.44 75.96 350.88 75.672 352.608 75.384C352.608 75.384 352.896 75.672 353.184 75.672ZM379.392 77.4C381.984 77.688 384.288 78.264 386.88 78.84C386.592 78.552 386.592 78.552 386.304 78.264C387.744 78.552 389.184 78.84 390.624 79.128C390.048 79.128 389.76 79.128 389.184 79.128C389.76 79.416 390.336 79.704 390.624 79.704C388.608 80.568 381.984 79.128 379.392 77.4ZM353.472 75.384C353.76 75.384 353.76 75.384 353.76 75.384C354.048 75.384 354.336 75.384 354.624 75.096C354.624 75.384 354.624 75.384 354.624 75.672C354.336 75.672 354.336 75.672 353.472 75.384ZM277.728 82.008C277.152 82.584 276.864 83.448 276.288 84.024C274.848 85.176 273.696 86.328 272.256 87.192C268.8 90.072 264.768 91.224 260.16 91.512C259.296 91.512 258.432 91.512 257.568 91.512C255.552 91.512 253.536 91.224 251.808 90.36C250.944 90.072 250.08 89.496 248.928 89.208C246.624 88.056 244.32 86.904 242.016 85.464C241.152 84.888 240 84.312 239.136 83.736C238.272 83.16 237.408 82.872 236.544 82.296C235.104 81.72 233.952 80.856 232.512 80.28C231.072 79.416 229.632 78.84 228.192 79.128C227.616 79.128 227.04 79.128 226.464 79.128C224.448 79.416 222.432 79.992 220.992 81.432C220.416 81.72 219.84 82.296 219.552 82.872C218.112 84.312 216.96 85.752 216.096 87.48C216.096 87.768 215.808 88.056 216.384 88.632C216.672 88.344 216.96 88.056 216.96 87.768C217.248 87.192 217.824 86.904 218.112 86.328C218.4 86.328 218.688 86.04 218.976 85.752C220.128 84.312 221.568 82.872 223.296 81.72C223.584 81.432 224.16 81.432 224.448 81.144C225.6 80.856 226.752 80.568 228.192 80.28C228.768 80.28 229.632 80.28 230.208 80.856C230.208 81.144 230.496 81.144 230.784 81.432C231.648 81.72 232.8 81.72 233.376 82.584C233.952 83.16 234.816 83.736 235.392 84.024C236.256 84.6 237.12 85.752 238.272 85.464L238.56 85.752C240.288 86.616 242.016 87.48 243.456 88.632C246.336 90.072 248.64 91.512 251.808 92.376C252.096 92.376 252.672 92.376 252.96 92.952C250.08 92.952 247.488 91.8 244.896 90.936C245.76 91.224 246.336 91.8 246.912 92.088C248.928 92.664 250.656 93.528 252.672 93.528C254.112 93.528 255.552 93.816 256.992 93.816C257.856 94.104 258.72 93.816 259.296 93.816C261.6 93.816 263.616 93.528 265.632 92.664C267.936 92.088 270.528 91.224 272.544 89.784C275.424 88.056 277.728 85.752 279.456 82.872C279.744 82.296 280.032 82.008 280.32 82.008C282.912 82.296 285.216 81.72 287.808 81.432C288.672 81.144 289.824 81.144 290.4 79.992C288.672 79.704 287.232 80.568 285.792 80.28C284.064 80.28 282.336 80.856 280.608 80.568C281.184 79.992 281.472 79.416 281.76 78.84C282.048 78.264 282.048 77.688 281.76 77.4C280.896 77.112 280.608 76.536 280.032 75.96C279.744 75.672 279.456 75.384 279.168 75.384C277.728 75.096 276 75.96 275.424 77.112C274.848 78.264 275.136 79.416 276.288 80.568C276.864 80.856 277.152 81.432 277.728 82.008ZM276 78.552C276.576 77.688 277.44 77.4 278.304 77.4C278.88 77.4 279.456 77.112 280.032 77.976C280.32 78.552 279.456 78.84 279.456 79.416C279.168 79.416 279.168 79.704 278.88 79.992C278.592 79.992 278.304 80.28 278.016 79.992C277.44 79.704 276.864 79.128 276 78.552Z" fill="black"/>
<path d="M229.252 101.952C229.444 100.416 229.636 99.072 229.828 97.728C230.02 95.424 230.212 93.12 230.404 90.816C230.596 88.704 230.788 86.4 230.98 84.288C231.172 80.64 231.172 76.992 231.364 73.152C231.364 71.616 231.364 71.424 232.9 71.04C235.972 70.08 238.852 69.12 242.116 68.352C244.42 67.776 246.916 67.584 249.412 67.008C250.948 66.816 251.14 66.816 251.14 68.544C250.948 73.344 250.948 78.336 250.756 83.328C250.564 85.632 250.372 87.744 250.372 90.048C250.18 94.464 250.372 98.88 251.524 103.296C251.716 104.064 251.332 105.216 252.484 105.408C253.636 105.6 253.636 104.256 254.02 103.68C254.788 103.68 255.556 103.68 256.132 103.488C256.132 102.528 256.132 101.76 256.132 100.992C255.94 95.616 256.132 90.24 256.516 85.056C256.516 82.56 256.708 80.064 256.9 77.568C256.9 74.88 256.708 72 256.708 69.312C256.9 67.968 256.9 66.432 257.476 65.28C258.052 64.512 259.396 64.32 260.356 63.936C260.548 63.936 260.548 63.744 260.74 63.744C260.356 61.824 260.356 61.824 257.284 61.824C257.284 61.248 257.284 60.864 257.284 60.288C257.284 57.792 257.476 55.296 257.668 52.992C257.86 49.344 258.052 45.888 258.436 42.24C258.82 37.824 259.396 33.216 259.972 28.608C259.972 27.264 260.164 26.112 260.356 24.768C260.356 23.808 259.78 23.04 259.012 22.656C256.708 21.696 255.172 22.464 254.98 24.96C254.98 25.152 254.788 25.152 254.788 25.344C254.404 25.536 254.02 25.536 253.636 25.536C253.252 27.648 252.1 29.568 253.828 31.488C254.02 31.68 253.636 32.256 253.636 32.64C253.252 32.448 253.06 32.448 252.868 32.256C252.1 36.288 252.1 40.32 252.1 44.352C252.1 46.848 252.484 49.152 251.908 51.456C251.524 52.608 251.524 53.76 251.524 54.912C251.332 57.408 251.332 59.904 251.14 62.592C251.14 63.36 250.564 63.744 249.796 63.936C249.028 64.128 248.068 64.32 247.3 64.512C243.844 65.28 240.58 66.24 237.124 67.2C235.396 67.584 233.668 67.968 231.748 68.544C231.748 66.816 231.556 65.28 231.748 63.744C231.94 61.632 232.324 59.328 232.324 57.216C232.324 53.76 233.092 50.304 232.708 46.656C232.708 46.464 232.708 46.272 232.708 46.08C232.708 44.736 232.9 43.392 232.9 41.856C232.9 41.088 232.708 40.128 233.092 39.168C233.476 37.44 233.284 35.52 233.092 33.6C232.516 33.216 231.94 33.024 231.364 32.832C230.02 32.832 228.868 32.832 227.524 32.832C226.564 32.832 226.18 33.216 226.18 34.176C225.988 36.48 225.988 38.592 225.988 40.896C225.988 41.664 225.988 42.624 225.988 43.392C225.796 46.848 225.604 50.112 225.604 53.568C225.796 58.752 225.22 63.936 224.836 69.312C224.836 69.888 224.452 70.464 223.684 70.656C222.34 70.848 220.996 71.04 219.652 71.424C219.268 71.424 218.884 71.616 218.5 71.808C218.884 72.384 219.46 72.768 220.036 72.768C220.996 72.96 222.148 72.768 223.3 72.576C223.684 72.576 224.26 72.576 224.836 72.576C224.836 73.536 224.836 74.112 224.836 74.688C224.644 77.184 224.26 79.68 224.068 82.176C223.876 82.944 223.684 83.904 223.684 84.672C223.492 87.36 223.492 90.048 223.3 92.736C223.3 92.928 223.3 93.12 223.3 93.312C222.916 96 221.956 98.688 224.452 100.992C224.26 102.528 225.796 102.72 226.372 103.68C227.14 102.528 226.372 101.184 227.14 100.032C227.524 100.8 227.524 101.376 227.716 101.952C228.292 101.952 228.676 101.952 229.252 101.952ZM252.868 84.288C252.868 85.056 252.676 85.824 252.676 86.592C252.484 86.592 252.484 86.592 252.292 86.592C252.292 85.824 252.292 85.056 252.292 84.288C252.484 84.288 252.676 84.288 252.868 84.288ZM304.749 83.04C303.789 84.576 302.829 86.304 301.677 88.032C299.949 90.528 298.797 93.408 296.301 95.52C295.341 96.48 294.381 97.248 293.229 98.016C291.885 99.36 290.925 98.976 290.157 97.44C289.197 95.52 289.005 93.6 288.813 91.488C288.621 90.72 288.429 89.76 288.429 88.8C288.621 87.072 289.005 85.344 289.197 83.616C289.389 81.12 289.581 78.432 289.965 75.936C290.733 72.288 291.501 68.64 292.461 64.992C292.653 64.224 293.037 63.264 292.269 62.688C291.309 62.112 290.733 60.576 289.005 61.152C288.045 62.88 286.893 64.8 285.741 66.528C283.629 69.6 281.325 72.672 279.405 75.744C277.485 78.624 275.181 80.928 272.877 83.232C271.533 84.576 270.189 85.344 268.077 85.152C267.309 83.808 267.117 82.464 267.309 81.12C267.501 75.936 268.845 70.752 269.037 65.568C269.229 62.688 269.997 59.808 270.573 56.928C271.149 54.432 271.341 52.128 269.997 49.824C269.805 49.632 269.805 49.248 269.805 48.864C269.421 48.096 269.037 47.328 268.077 46.944C267.309 47.904 266.349 48.672 266.157 49.632C265.197 52.896 264.237 56.16 263.661 59.616C262.701 64.032 261.933 68.448 261.357 72.864C260.973 76.32 260.397 79.776 261.357 83.232C262.317 85.92 263.469 87.84 266.157 88.608C267.309 88.8 268.269 89.184 269.229 88.8C273.261 87.84 276.141 85.344 278.253 82.08C279.981 79.392 281.133 76.512 283.245 74.016C283.437 73.824 283.629 73.632 284.205 73.056C284.013 74.976 283.629 76.512 283.437 77.856C283.245 81.12 282.861 84.192 282.669 87.264C282.093 91.104 282.861 94.56 284.973 97.824C287.085 100.896 292.845 102.624 296.109 98.784C297.261 97.248 298.797 95.712 299.757 94.176C301.293 91.872 302.829 89.76 303.597 87.072C303.981 85.92 304.749 84.96 305.133 83.808C305.325 83.616 305.133 83.424 305.133 83.04C305.133 83.04 304.941 83.04 304.749 83.04ZM262.893 75.168C262.701 76.32 262.317 77.28 261.933 78.624C261.741 78.24 261.741 78.048 261.741 77.856C261.741 76.512 261.741 74.976 262.125 73.632C262.701 71.904 262.701 70.176 262.893 68.448C263.085 68.064 263.277 67.68 263.469 67.296C263.469 69.984 263.277 72.672 262.893 75.168ZM285.165 87.072C284.973 88.224 284.781 89.184 284.397 90.528C284.205 90.144 284.205 89.952 284.205 89.76C284.205 88.416 283.821 86.88 284.205 85.536C284.589 83.616 284.397 82.08 284.589 80.352C284.589 79.968 284.781 79.584 284.973 79.2C285.165 81.696 285.357 84.384 285.165 87.072ZM337.211 51.36C337.019 49.44 335.483 47.328 333.563 46.944C333.179 47.328 332.795 47.712 332.603 48.096C332.219 48.672 332.027 49.248 332.027 49.824C332.027 52.704 330.875 55.2 329.531 57.504C328.379 59.808 326.651 61.536 326.267 64.032C326.267 64.416 325.883 64.608 325.883 64.8C323.579 68.256 321.275 71.52 318.779 74.784C317.627 76.512 316.283 78.24 314.747 79.776C313.403 81.312 311.867 82.848 310.331 84.192C309.563 84.96 308.603 85.344 307.451 86.304C306.875 85.152 306.299 84.384 306.299 83.616C306.299 82.656 306.683 81.504 306.875 80.352C306.875 79.584 307.259 78.624 307.259 77.856C307.259 75.552 307.451 73.44 308.219 71.328C308.603 69.984 308.795 68.64 309.179 67.296C309.179 67.104 309.179 66.912 308.987 66.72C308.603 65.952 308.795 65.184 309.179 64.416C309.563 63.072 309.755 61.728 310.139 60.384C310.331 59.808 310.139 59.232 310.139 58.656C309.947 58.08 309.563 57.696 308.795 58.08C307.451 58.656 305.723 59.232 305.723 61.152C305.531 61.728 305.147 62.112 304.955 62.496C304.571 63.072 304.379 63.648 304.187 64.224C303.611 65.76 303.227 67.488 302.843 69.216C301.883 73.44 300.923 77.664 300.155 81.888C299.771 84.192 299.963 86.496 301.307 88.608C302.075 89.952 303.227 90.528 304.571 90.336C308.603 89.952 312.059 88.224 314.747 85.152C316.475 83.424 317.819 81.312 319.355 79.392C320.507 77.664 321.659 75.744 322.811 74.016C324.347 71.52 325.883 68.832 327.419 66.336C327.995 65.376 328.571 64.608 329.147 63.84C329.147 63.84 329.147 63.84 329.339 63.84C328.955 65.568 328.379 67.296 327.995 68.832C327.035 73.056 326.267 77.472 325.307 81.696C324.539 84.768 323.771 87.84 323.003 90.912C322.235 93.6 321.467 96.096 320.699 98.784C319.355 104.928 318.395 111.072 316.667 117.216C316.475 117.984 316.091 118.752 315.899 119.712C315.323 122.4 314.363 124.896 313.019 127.2C312.251 128.544 310.907 129.504 310.331 130.656C308.987 132.96 306.875 134.304 304.955 135.84C304.379 136.416 303.803 136.608 303.035 136.992C300.923 137.568 299.963 136.8 300.155 134.496C300.347 131.04 301.307 127.584 302.267 124.32C303.035 121.248 303.995 118.176 305.531 115.296C307.259 112.032 309.371 109.152 311.867 106.656C313.979 104.352 315.899 102.048 317.243 99.168C316.283 98.784 315.515 99.168 314.939 99.936C313.979 100.704 313.019 101.856 311.867 102.432C311.099 102.816 310.331 103.2 309.755 103.968C306.875 106.656 304.763 109.92 302.843 113.376C300.539 117.6 299.003 122.208 297.659 126.816C297.083 128.928 296.123 131.04 296.315 133.152C296.699 136.224 297.851 138.72 300.731 140.256C301.307 140.64 301.883 141.024 302.459 140.832C304.379 140.448 306.107 139.872 307.643 139.296C311.675 137.76 313.787 134.112 316.475 131.232C318.587 129.12 319.739 126.24 320.699 123.36C321.083 122.4 321.467 121.44 322.043 120.48C323.579 117.408 324.155 114.144 325.115 110.88C325.883 108.96 326.075 107.04 326.651 104.928C327.611 100.896 328.379 96.864 329.339 92.832C330.107 89.376 331.067 86.112 331.835 82.656C332.219 80.928 332.411 79.2 332.603 77.472C332.795 77.088 332.795 76.704 332.987 76.512C333.563 73.824 334.331 71.136 334.907 68.64C335.483 66.144 335.675 63.84 336.251 61.344C336.827 58.08 337.211 54.816 337.211 51.36ZM305.531 74.4C305.723 73.056 305.531 71.52 306.107 70.176C306.875 68.448 306.875 66.72 307.259 64.992C307.451 64.608 307.643 64.416 307.835 64.032C307.835 66.72 307.451 69.216 306.875 71.904C306.491 72.864 306.107 74.016 305.723 75.168C305.531 74.784 305.339 74.592 305.531 74.4ZM321.275 118.368C320.891 119.328 320.315 120.288 319.739 121.632C319.739 121.056 319.739 120.864 319.739 120.864C320.123 119.328 320.123 117.792 320.891 116.448C321.659 114.912 321.851 113.184 322.427 111.648C322.619 111.264 322.811 110.88 323.195 110.496C322.811 113.184 322.043 115.872 321.275 118.368ZM375.655 74.208C372.967 77.472 370.279 80.736 367.399 84C365.287 86.496 362.983 88.8 360.487 91.104C358.951 92.256 357.799 91.68 357.991 89.76C358.567 86.112 359.143 82.464 360.103 78.816C361.255 73.248 362.983 67.872 364.135 62.304C364.711 60 363.559 58.08 361.639 56.736C359.911 55.584 358.183 56.352 356.455 57.312C352.039 60 348.967 64.032 345.895 67.872C345.511 68.448 344.935 68.832 344.167 69.792C344.359 66.528 344.743 63.84 344.935 61.152C345.127 57.888 345.511 54.816 345.511 51.744C345.511 50.784 344.743 49.248 343.975 48.672C343.015 47.904 339.943 50.016 339.559 51.168C339.175 53.28 338.791 55.392 338.599 57.696C337.639 65.184 336.871 72.672 336.103 80.16C335.911 81.312 335.527 82.464 335.527 83.616C335.143 87.456 334.759 91.104 334.567 94.752C334.567 96.672 333.607 98.784 336.103 100.128C336.871 99.36 338.023 98.784 338.407 97.824C339.559 94.944 340.327 91.872 341.095 88.8C341.863 85.152 342.247 81.504 343.207 77.856C345.127 71.712 348.391 66.336 352.999 61.92C353.959 60.96 355.111 60.192 356.071 59.616C357.415 59.04 358.567 59.424 358.759 61.152C359.143 63.648 358.951 66.144 357.991 68.448C356.647 72.672 355.111 76.704 354.151 80.928C353.575 84 353.383 87.264 353.575 90.528C353.767 92.832 355.879 93.792 357.991 93.024C359.719 92.448 361.255 91.872 362.599 90.72C367.783 86.688 372.583 82.08 376.039 76.32C376.423 75.936 376.423 75.168 376.423 74.4C376.231 74.4 375.847 74.208 375.655 74.208ZM363.175 61.728C363.367 61.152 363.175 60.576 363.367 60C363.367 59.808 363.367 59.808 363.367 59.616C363.559 60.576 363.559 61.344 363.367 62.304C363.367 62.688 363.175 62.88 363.175 63.456C362.983 63.264 362.983 63.264 362.983 63.264C362.983 62.688 362.983 62.112 363.175 61.728ZM336.295 91.68C336.295 92.448 335.911 93.216 335.719 94.176C335.719 93.984 335.527 93.792 335.527 93.792C335.527 92.64 335.335 91.488 335.719 90.528C336.103 89.376 335.911 88.032 336.103 86.88C336.103 86.496 336.295 86.304 336.487 86.112C336.487 88.032 336.487 89.76 336.295 91.68ZM418.634 83.424C418.634 83.616 418.442 84 418.25 84.192C415.946 89.568 411.914 93.6 407.69 97.44C405.77 98.976 404.234 101.088 401.354 101.28C399.626 101.28 399.626 100.704 399.626 99.552C400.202 94.56 400.778 89.376 401.354 84.384C401.738 80.928 402.314 77.472 403.082 74.016C403.85 69.792 405.002 65.76 405.578 61.728C405.962 60 405.77 57.888 404.81 56.736C402.314 53.472 398.09 52.32 394.25 54.24C389.834 56.16 387.146 60 384.65 63.84C382.922 66.528 381.386 69.216 379.658 71.904C379.466 70.176 379.658 68.256 380.042 66.528C380.618 62.112 381.386 57.504 381.962 53.088C382.538 49.44 382.73 45.984 383.306 42.336C383.882 38.688 384.458 35.232 385.034 31.776C385.61 27.744 386.186 23.52 386.762 19.488C387.338 15.648 386.954 14.112 384.65 12C384.266 12.576 383.882 12.96 383.498 13.536C381.578 11.616 380.81 15.648 378.89 13.92C378.698 16.224 378.698 18.336 378.506 20.256C377.738 27.168 377.162 34.08 376.394 40.992C375.626 47.328 375.05 53.664 374.282 59.808C373.898 64.224 373.322 68.64 372.938 72.864C372.554 77.088 372.17 81.312 371.978 85.536C371.786 89.184 371.786 92.64 371.594 96.288C371.594 96.864 371.786 97.44 371.978 98.208C372.554 98.016 373.322 97.824 374.09 97.632C374.09 97.824 374.474 98.208 374.858 98.784C375.626 97.44 376.394 96.288 376.778 94.944C377.354 91.488 377.546 88.032 378.122 84.576C378.314 82.464 378.506 80.544 379.082 78.624C379.658 76.704 380.81 74.976 381.77 73.056C383.306 70.56 384.842 67.872 386.57 65.376C388.874 61.536 391.37 57.888 395.786 56.16C398.09 55.2 400.202 56.352 399.818 58.848C399.434 63.072 398.474 67.296 397.898 71.712C397.322 76.896 396.746 82.08 396.17 87.264C395.978 90.336 395.402 93.6 395.786 96.672C396.554 101.856 398.666 104.544 404.234 103.008C406.538 102.432 408.458 100.896 410.186 99.168C413.834 95.52 416.33 91.488 418.634 87.264C419.018 86.304 419.018 84.96 419.402 83.808C419.21 83.616 418.826 83.424 418.634 83.424ZM404.426 61.152C404.618 60.576 404.618 60 404.618 59.424C404.618 59.232 404.618 59.04 404.81 59.04C404.81 59.808 404.81 60.768 404.81 61.728C404.618 61.92 404.618 62.304 404.426 62.88C404.426 62.688 404.426 62.688 404.426 62.496C404.426 62.112 404.234 61.536 404.426 61.152ZM374.09 92.64C373.898 93.408 373.706 94.176 373.514 95.136C373.322 94.752 373.322 94.752 373.322 94.56C373.322 93.6 373.13 92.448 373.514 91.488C373.898 90.144 373.706 88.992 373.898 87.648C373.898 87.456 374.09 87.072 374.282 86.88C374.282 88.8 374.282 90.72 374.09 92.64ZM375.05 79.968C374.858 81.312 374.474 82.848 374.09 84.576C373.706 84 373.706 83.808 373.706 83.616C373.706 81.696 373.322 79.584 373.898 77.856C374.666 75.552 374.282 73.44 374.666 71.136C374.666 70.56 374.858 70.176 375.242 69.6C375.434 73.056 375.434 76.512 375.05 79.968Z" fill="black"/>
</svg>
